<!-- Generated by IcoMoon.io -->
<svg version="1.1" xmlns="http://www.w3.org/2000/svg" width="32" height="32" viewBox="0 0 32 32">
<title>chevron-right1</title>
<path d="M25.938 6.063q-1.063-1.094-2.313-1.906-1.25-0.844-2.609-1.406t-2.828-0.844q-1.469-0.313-3-0.313-1.5 0-2.969 0.313-1.469 0.281-2.844 0.844t-2.594 1.406q-1.25 0.813-2.344 1.906-1.063 1.063-1.906 2.313-0.813 1.25-1.375 2.609t-0.875 2.828q-0.281 1.469-0.281 3 0 1.5 0.281 2.969 0.313 1.469 0.875 2.828t1.375 2.609q0.844 1.25 1.906 2.344 1.094 1.063 2.344 1.906 1.219 0.813 2.594 1.375t2.844 0.875q1.469 0.281 2.969 0.281 1.531 0 3-0.281 1.469-0.313 2.828-0.875t2.609-1.375q1.25-0.844 2.313-1.906 1.094-1.094 1.906-2.344 0.844-1.219 1.406-2.594t0.844-2.844q0.313-1.469 0.313-2.969 0-1.531-0.313-3-0.281-1.469-0.844-2.828t-1.406-2.609q-0.813-1.25-1.906-2.313v0zM15.188 30.406q-2.813 0-5.281-1.063-2.469-1.094-4.313-2.938t-2.938-4.313q-1.063-2.469-1.063-5.281t1.063-5.313q1.094-2.469 2.938-4.313t4.313-2.906q2.469-1.094 5.281-1.094t5.313 1.094q2.469 1.063 4.313 2.906t2.906 4.313q1.094 2.5 1.094 5.313t-1.094 5.281q-1.063 2.469-2.906 4.313t-4.313 2.938q-2.5 1.063-5.313 1.063v0zM24.563 16.25l-6.406-6.406q-0.219-0.25-0.547-0.25t-0.578 0.25q-0.219 0.219-0.219 0.547t0.219 0.578l5.031 5.031h-16.469q-0.313 0-0.547 0.234t-0.234 0.578q0 0.313 0.234 0.547t0.547 0.234h16.469l-5.031 5.031q-0.219 0.25-0.219 0.578t0.219 0.578q0.125 0.094 0.266 0.156t0.297 0.063 0.313-0.063 0.25-0.188l6.406-6.375q0.25-0.25 0.25-0.578t-0.25-0.578v0.031z"></path>
</svg>
