<!-- Generated by IcoMoon.io -->
<svg version="1.1" xmlns="http://www.w3.org/2000/svg" width="32" height="32" viewBox="0 0 32 32">
<title>energy</title>
<path d="M11.75 5.406q-0.375-0.75-0.531-1.438t0.5-1.688q0.063-0.063 0.094-0.156t0.031-0.188q0-0.156-0.078-0.281t-0.203-0.219v0q-0.063-0.063-0.156-0.078t-0.188-0.016q-0.156 0-0.281 0.063t-0.219 0.188v0q-0.938 1.438-0.703 2.484t0.641 1.891q0.375 0.75 0.516 1.406t-0.453 1.563q-0.063 0.063-0.078 0.156t-0.016 0.188q0 0.156 0.063 0.297t0.188 0.203v0q0.094 0.063 0.172 0.078t0.172 0.016v0 0 0q0.156 0 0.297-0.063t0.203-0.188v0q0.906-1.375 0.672-2.391t-0.641-1.828v0zM16.594 5.406q-0.375-0.75-0.531-1.438t0.5-1.688q0.031-0.063 0.063-0.156t0.031-0.188q0-0.156-0.078-0.281t-0.172-0.219v0q-0.094-0.063-0.172-0.078t-0.172-0.016q-0.156 0-0.297 0.063t-0.203 0.188v0q-0.969 1.438-0.719 2.484t0.656 1.891q0.375 0.75 0.516 1.406t-0.453 1.563q-0.063 0.063-0.094 0.156t-0.031 0.188q0 0.25 0.188 0.422t0.438 0.172v0 0 0 0 0q0.156 0 0.281-0.063t0.219-0.188v0q0.906-1.375 0.656-2.391t-0.625-1.828v0zM21.406 5.406q-0.375-0.75-0.516-1.438t0.516-1.688q0.031-0.063 0.063-0.156t0.031-0.188q0-0.156-0.078-0.281t-0.203-0.219v0q-0.063-0.063-0.156-0.078t-0.188-0.016q-0.156 0-0.281 0.063t-0.219 0.188v0q-0.938 1.438-0.688 2.484t0.656 1.891q0.375 0.75 0.516 1.406t-0.484 1.563q-0.031 0.063-0.063 0.156t-0.031 0.188q0 0.25 0.172 0.422t0.422 0.172v0 0 0 0h0.031q0.156 0 0.281-0.063t0.188-0.188h0.031q0.875-1.375 0.641-2.391t-0.641-1.828v0zM26.313 11.125h-20.625q-1.25 0-2.141 0.891t-0.891 2.141v0 0 0 11.031q0 1.25 0.891 2.141t2.141 0.891h20.625q1.25 0 2.141-0.891t0.891-2.141v0-11.031q0-1.25-0.891-2.141t-2.141-0.891v0 0zM28.125 25.156v0.031q0 0.75-0.531 1.281t-1.281 0.531h-20.625q-0.75 0-1.281-0.531t-0.531-1.281v-11.031q0-0.75 0.531-1.281t1.281-0.531h20.625q0.75 0 1.281 0.531t0.531 1.281v0 0 0 11zM6.906 13.563q-0.25 0-0.422 0.172t-0.172 0.422v0 0 0 11q0 0.25 0.172 0.438t0.422 0.188 0.422-0.188 0.172-0.438v0-11q0-0.25-0.172-0.422t-0.422-0.172v0 0zM10.531 13.563q-0.25 0-0.422 0.172t-0.172 0.422v0 0 0 11q0 0.25 0.172 0.438t0.422 0.188q0.281 0 0.453-0.188t0.172-0.438v0-11q0-0.25-0.188-0.422t-0.438-0.172v0 0 0 0zM14.188 13.563q-0.25 0-0.422 0.172t-0.172 0.422v0 0 0 11q0 0.25 0.172 0.438t0.422 0.188 0.422-0.188 0.172-0.438v0-11q0-0.25-0.172-0.422t-0.422-0.172v0 0zM17.813 13.563q-0.25 0-0.422 0.172t-0.172 0.422v0 0 0 11q0 0.25 0.172 0.438t0.422 0.188 0.438-0.188 0.188-0.438v0-11q0-0.25-0.188-0.422t-0.438-0.172v0 0zM21.469 13.563q-0.25 0-0.438 0.172t-0.188 0.422v0 0 0 11q0 0.25 0.188 0.438t0.438 0.188 0.422-0.188 0.172-0.438v0-11q0-0.25-0.172-0.422t-0.422-0.172v0 0zM25.094 13.563q-0.25 0-0.422 0.172t-0.172 0.422v0 0 0 11q0 0.25 0.172 0.438t0.422 0.188 0.438-0.188 0.188-0.438v0-11q0-0.25-0.188-0.422t-0.438-0.172v0 0zM8.125 27.344q-0.25 0-0.438 0.172t-0.188 0.422v0 0 0 2.125q0 0.25 0.188 0.422t0.438 0.172 0.422-0.172 0.172-0.422v0-2.125q0-0.25-0.172-0.422t-0.422-0.172v0 0zM23.906 27.344q-0.25 0-0.438 0.172t-0.188 0.422v2.125q0 0.25 0.188 0.422t0.438 0.172 0.422-0.172 0.172-0.422v0-2.125q0-0.25-0.172-0.422t-0.422-0.172v0 0z"></path>
</svg>
