<!-- Generated by IcoMoon.io -->
<svg version="1.1" xmlns="http://www.w3.org/2000/svg" width="32" height="32" viewBox="0 0 32 32">
<title>home-buy</title>
<path d="M32 13.406v-4.125h-3.094v-9.281h-20.875l-4.938 5.469v3.813h-3.094v4.125h3.094v1.75l-1.969-0.719h-1.125v11.375h4.5l0.281-0.875 2.188 1.313 1.438 0.375q-0.063 0.156-0.109 0.328t-0.047 0.328q0 0.656 0.453 1.125t1.109 0.5v0q1.094 0.688 2.016 1.344t1.797 1.344l-0.156-0.094q0.281-0.031 0.531-0.109t0.438-0.234v0l0.375 0.375q0.219 0.219 0.5 0.344t0.594 0.125v0 0h0.094q0.5 0 0.891-0.281t0.547-0.719v-0.031q0.219 0.25 0.516 0.391t0.641 0.141q0.531 0 0.938-0.328t0.531-0.828v0q0.125 0.031 0.281 0.063t0.313 0.031v0q0.531 0 0.938-0.313t0.531-0.813v0q0.125 0.031 0.281 0.063t0.313 0.031v0q0.625 0 1.078-0.453t0.453-1.078v0-0.188q0-0.25-0.078-0.484t-0.234-0.422v0l-0.156-0.25 1.906-1.531 0.25 0.813h6.063v-11.375h-1.031l-2.063 0.594v-1.625h3.094zM4.125 6.188h5.156v-5.156h18.594v8.25h-3.094v-2l-6.094 4.063 6.094 4.063v-2h3.094v1.938l-4.781 1.344 0.438 1.438-6.438 0.406q-0.375 0.031-0.719 0.125t-0.656 0.281v-0.031l-1.094 0.563q-0.344-0.188-0.75-0.281t-0.844-0.094h-3.625l-2.406-1.219 0.344-1.156-3.219-1.188v-2.125h3.094v2l6.094-4.063-6.094-4.063v2h-3.094v-3.094zM8.25 1.281v3.875h-3.469zM1.031 12.375v-2.063h7.219v-1.094l3.219 2.125-3.219 2.156v-1.125h-7.219zM3.75 24.781h-2.719v-9.281l5.031 1.844zM7.438 25.313l-2.344-1.375 1.594-5.063 2.469 1.25h3.906q0.375 0 0.719 0.109t0.656 0.297h-0.031l2.813 1.75q0.156 0.094 0.25 0.25t0.094 0.344v0.156q0 0.313-0.219 0.516t-0.5 0.203v0 0 0 0 0q-0.094 0-0.188-0.031t-0.156-0.063v0l-1.938-1.188q-0.219-0.125-0.484-0.203t-0.547-0.078q-0.406 0-0.781 0.156t-0.656 0.438l-2.969 2.969zM16.5 30.438v0 0q0 0.219-0.141 0.375t-0.359 0.156v0 0h-0.094q-0.094 0-0.188-0.047t-0.188-0.109l-0.406-0.438q-0.063-0.063-0.109-0.156t-0.047-0.188v0 0 0-0.094q0-0.219 0.156-0.375t0.375-0.156v0 0h0.063q0.125 0 0.219 0.047t0.156 0.109v0l0.438 0.438q0.063 0.063 0.094 0.156t0.031 0.219v0 0 0 0.063zM23.156 25.719l-0.25-0.313q-0.219-0.281-0.531-0.453t-0.688-0.172q-0.531 0-0.953 0.313t-0.547 0.813v0.031q-0.125-0.063-0.281-0.094t-0.313-0.031q-0.531 0-0.938 0.328t-0.531 0.797v0.031q-0.125-0.063-0.266-0.094t-0.297-0.031v0 0 0q-0.656 0-1.109 0.453t-0.453 1.078v0.094q-0.094-0.031-0.203-0.063t-0.234-0.031v0h-0.063q-0.656 0-1.109 0.453t-0.453 1.109v0 0.188t0.031 0.094v0l-0.094 0.063q-0.063 0.063-0.172 0.109t-0.203 0.047h-0.031q-0.219 0-0.391-0.156t-0.172-0.406v0 0 0q0-0.125 0.047-0.234t0.109-0.172v0l2.281-2.25-0.75-0.75-2.781 2.781q-0.063 0.094-0.172 0.125t-0.234 0.031v0q-0.219 0-0.391-0.156t-0.172-0.406q0-0.125 0.047-0.234t0.109-0.172l2.781-2.781-0.719-0.719-2.781 2.75q-0.094 0.094-0.188 0.141t-0.219 0.047q-0.25 0-0.422-0.172t-0.172-0.422v0 0 0q0-0.125 0.047-0.219t0.141-0.188v0l3.375-3.375q0.125-0.125 0.297-0.203t0.391-0.078q0.125 0 0.25 0.047t0.25 0.109v0l1.938 1.156q0.188 0.125 0.406 0.188t0.469 0.063v0q0.719 0 1.234-0.516t0.516-1.234v-0.188q0-0.438-0.234-0.828t-0.578-0.609v0l-2.094-1.313 0.5-0.25q0.219-0.125 0.469-0.188t0.5-0.094v0l6.688-0.438 1.531 4.813zM21.156 28.906q0 0.219-0.156 0.359t-0.344 0.141v0q-0.125 0-0.234-0.047t-0.203-0.141v0l-1.031-1.375q-0.031-0.063-0.063-0.141t-0.031-0.172v-0.188q0-0.188 0.156-0.344t0.375-0.156v0 0 0 0 0q0.125 0 0.234 0.047t0.172 0.141v0l1.031 1.375q0.031 0.094 0.063 0.172t0.031 0.141v0.188zM23.219 27.875v0 0q0 0.219-0.141 0.359t-0.359 0.141v0 0 0q-0.125 0-0.234-0.047t-0.203-0.141v0l-1.031-1.375q-0.031-0.063-0.063-0.141t-0.031-0.172v-0.188q0-0.219 0.156-0.359t0.375-0.141q0.125 0 0.234 0.047t0.172 0.141v0l1.031 1.375q0.031 0.094 0.063 0.172t0.031 0.141v0 0 0 0.188zM19.094 29.938v0 0q0 0.219-0.156 0.359t-0.344 0.141q-0.125 0-0.234-0.047t-0.203-0.141v0l-1.031-1.375q-0.031-0.063-0.063-0.141t-0.031-0.172v-0.188q0-0.219 0.156-0.359t0.375-0.141v0 0 0 0 0q0.125 0 0.219 0.047t0.188 0.141v0l1.031 1.406q0.031 0.063 0.063 0.141t0.031 0.141v0 0 0 0.188zM30.969 15.5v9.281h-4.281l-2.313-7.406zM23.75 12.375v1.125l-3.219-2.156 3.219-2.125v1.094h7.219v2.063h-7.219zM10.313 2.063h16.531v1.031h-16.531v-1.031zM10.313 4.125h16.531v1.031h-16.531v-1.031zM16 9.281q0.438 0 0.734 0.313t0.297 0.719v0h1.031q0-0.719-0.438-1.266t-1.094-0.703h-0.031v-1.125h-1v1.125q-0.688 0.156-1.125 0.703t-0.438 1.266q0 0.875 0.609 1.469t1.453 0.594v0 0 0 0 0q0.438 0 0.734 0.313t0.297 0.719q0 0.438-0.297 0.734t-0.734 0.297-0.734-0.297-0.297-0.734v0h-1.031q0 0.719 0.438 1.266t1.094 0.734h0.031v1.094h1v-1.094q0.688-0.188 1.125-0.734t0.438-1.266q0-0.844-0.609-1.453t-1.453-0.609v0 0 0q-0.438 0-0.734-0.297t-0.297-0.734q0-0.406 0.297-0.719t0.734-0.313v0 0z"></path>
</svg>
