<!-- Generated by IcoMoon.io -->
<svg version="1.1" xmlns="http://www.w3.org/2000/svg" width="32" height="32" viewBox="0 0 32 32">
<title>home-parking</title>
<path d="M12.281 10.25q-0.906 0.125-1.656 0.578t-1.25 1.141v0q-0.375 0.5-0.703 1.063t-0.609 1.156l-0.031 0.063q-0.219-0.094-0.453-0.172t-0.484-0.078v0h-0.781q-0.688 0-1.156 0.484t-0.5 1.141v0 0.875q0.031 0.531 0.547 0.969t1.047 0.625q-0.25 0.469-0.375 1.031t-0.125 1.188v5.313q0 0.719 0.484 1.203t1.203 0.516h1.375q0.688-0.031 1.188-0.516t0.5-1.203v0 0 0-0.313h11v0.344q0 0.688 0.484 1.188t1.203 0.5h1.406q0.688-0.031 1.172-0.516t0.484-1.203v0 0 0-5.313q0-0.594-0.125-1.156t-0.375-1.094l0.031 0.031q0.531-0.156 1.031-0.594t0.5-1v-0.844q0-0.688-0.469-1.156t-1.156-0.5v0h-0.781q-0.25 0-0.484 0.078t-0.453 0.203v0q-0.313-0.688-0.656-1.25t-0.719-1.094l0.031 0.031q-0.5-0.688-1.25-1.141t-1.625-0.578h-0.031q-0.844-0.125-1.781-0.188t-1.938-0.063-1.969 0.063-1.906 0.219l0.156-0.031zM19.531 11.563q0.656 0.063 1.203 0.391t0.891 0.797l0.031 0.031q0.375 0.594 0.719 1.25t0.625 1.375l0.063 0.125q0.063 0.156 0.219 0.266t0.344 0.109q0.063 0 0.109-0.016t0.109-0.047v0q0.031-0.031 0.078-0.047t0.109-0.078v0q0.156-0.156 0.375-0.266t0.5-0.141v0h0.594q0.219 0 0.344 0.141t0.125 0.328v0.531q-0.031 0.219-0.203 0.375t-0.422 0.156h-0.719q-0.25 0-0.422 0.172t-0.172 0.422v0 0 0q0 0.125 0.031 0.25l0.063 0.25v-0.031q0.063 0.063 0.094 0.109t0.063 0.109q0.313 0.469 0.484 1.016t0.172 1.141v5.219q0 0.219-0.141 0.359t-0.359 0.141h-1.125q-0.219 0-0.359-0.141t-0.141-0.359v0 0 0-0.906q0-0.25-0.172-0.422t-0.422-0.172v0h-12.438q-0.25 0-0.422 0.172t-0.172 0.422v0 0.906q0 0.219-0.141 0.359t-0.359 0.141h-1.125q-0.219 0-0.359-0.141t-0.141-0.359v0 0 0-5.188q0-0.625 0.172-1.172t0.484-1.016v0q0.031-0.031 0.063-0.094t0.094-0.094q0.031-0.094 0.063-0.203t0.031-0.203q0-0.188-0.063-0.328t-0.156-0.234v0q-0.094-0.063-0.172-0.094t-0.203-0.031v0 0h-0.875q-0.219 0-0.359-0.141t-0.141-0.359v-0.531q0-0.219 0.125-0.344t0.313-0.156h0.656q0.281 0.031 0.5 0.141t0.406 0.297v0q0.063 0.063 0.172 0.109t0.234 0.047 0.234-0.047 0.203-0.141v0q0.031-0.031 0.063-0.078t0.031-0.109v0q0.344-0.781 0.703-1.469t0.766-1.344l-0.031 0.063q0.375-0.5 0.906-0.813t1.188-0.375v0q0.813-0.125 1.734-0.188t1.859-0.063 1.828 0.063 1.766 0.188l-0.125-0.031zM9.781 18.625q-0.063 0-0.156-0.016t-0.188-0.016q-0.5 0-0.891 0.297t-0.516 0.766v0q0 0.094-0.016 0.188t-0.016 0.188v0 0 0 0.531q0 0.594 0.422 1.016t1.016 0.422h1.969q0.625 0 1.031-0.422t0.406-1.016q0-0.5-0.297-0.891t-0.766-0.516v0zM11.281 20.813h-1.719q-0.094 0-0.172-0.078t-0.078-0.172v0 0 0-0.531q0-0.094 0.078-0.172t0.172-0.078v0 0h0.063l1.75 0.531q0.063 0.031 0.109 0.094t0.047 0.156v0.063q-0.031 0.063-0.094 0.109t-0.125 0.047v0zM20.563 22h1.969q0.594 0 1.031-0.422t0.438-1.016v-0.531q0-0.594-0.422-1.016t-1.016-0.422v0h-0.031q-0.094 0-0.172 0.016t-0.172 0.016v0l-1.969 0.531q-0.469 0.125-0.781 0.516t-0.313 0.891q0 0.594 0.422 1.016t1.016 0.422v0 0zM20.625 20.313l1.75-0.531h0.063q0.094 0 0.172 0.078t0.078 0.172v0 0 0 0.531q0 0.094-0.078 0.172t-0.172 0.078v0 0h-1.75q-0.094 0-0.172-0.078t-0.078-0.172v0 0 0q0.031-0.094 0.078-0.156t0.109-0.094v0 0zM30.375 9.5l-14.063-8.094q-0.063-0.063-0.141-0.078t-0.172-0.016q-0.063 0-0.141 0.016t-0.141 0.078v0l-14.094 8.094q-0.125 0.063-0.203 0.203t-0.078 0.297v0 0 0 20.063q0 0.25 0.172 0.422t0.422 0.172h28.125q0.25 0 0.438-0.172t0.188-0.422v0 0 0-20.063q0-0.156-0.094-0.297t-0.219-0.203v0 0zM29.344 29.344h-26.688v-18.688l13.344-7.75 13.344 7.75v18.688z"></path>
</svg>
