<!-- Generated by IcoMoon.io -->
<svg version="1.1" xmlns="http://www.w3.org/2000/svg" width="32" height="32" viewBox="0 0 32 32">
<title>home-key</title>
<path d="M12.844 11.188q-0.031 0.375-0.031 0.781v0.844q0 2 0.563 3.125t1.563 1.125q1.25 0 1.688-1.156t0.438-2.031q0-0.219-0.156-0.375t-0.375-0.156-0.375 0.156-0.156 0.375v0l-0.156 1.063t-0.906 1.063q-0.469 0-0.766-0.906t-0.297-2.281q0-4.688 1.094-5.813t1.156-1.156q0.156-0.031 0.281-0.172t0.125-0.328q0-0.219-0.156-0.375t-0.375-0.156h-0.094q-0.281 0.063-0.531 0.203t-0.438 0.328v0-0.031q0-0.063 0.016-0.125t0.016-0.125v0q0.094-0.344 0.375-0.563t0.656-0.219q0.281 0 0.531 0.141t0.375 0.359l0.031 0.031q0.063 0.094 0.094 0.234t0.031 0.297q0 0.281-0.141 0.531t-0.391 0.375v0q-0.125 0.063-0.203 0.188t-0.078 0.281q0 0.219 0.156 0.375t0.406 0.156v0 0 0 0 0q0.063 0 0.125-0.016t0.125-0.047v0q0.5-0.281 0.797-0.781t0.297-1.094q0-0.875-0.625-1.5t-1.531-0.625q-0.875 0-1.5 0.625t-0.625 1.5q0 0.281 0.063 0.531t0.188 0.5v-0.031q-0.438 0.75-0.734 1.641t-0.391 1.828v0.031q-0.563-0.656-0.891-1.516t-0.328-1.828q0-2.156 1.547-3.703t3.734-1.547q2.156 0 3.703 1.547t1.547 3.703q0 2.188-1.547 3.734t-3.703 1.547q-0.469 0-0.891-0.078t-0.828-0.234l0.031 0.031q-0.031-0.031-0.078-0.031h-0.109q-0.219 0-0.375 0.156t-0.156 0.375q0 0.156 0.109 0.297t0.266 0.203v0q0.469 0.156 0.984 0.25t1.047 0.094q1.313 0 2.5-0.5 1.156-0.531 2.031-1.391t1.375-2.016q0.5-1.188 0.5-2.5 0-1.344-0.5-2.5t-1.375-2.031-2.031-1.375q-1.188-0.5-2.5-0.5t-2.5 0.5q-1.156 0.5-2.031 1.375t-1.375 2.031-0.5 2.5v0q0.031 1.438 0.609 2.672t1.578 2.109v0 0zM6.938 20.25h4.25q0.469 0 1.203 0.5t1.422 1q0.875 0.656 1.703 1.188t1.547 0.531h3.313q0.313 0 0.594 0.094t0.531 0.281v0q0.063 0.063 0.156 0.109t0.219 0.047q0.094 0 0.188-0.047t0.188-0.109v0q0.063-0.063 0.109-0.172t0.047-0.203q0-0.125-0.047-0.219t-0.109-0.156v0q-0.375-0.313-0.859-0.5t-1.016-0.188h-3.313q-0.469 0-1.188-0.484t-1.406-1.016q-0.906-0.656-1.719-1.188t-1.563-0.531h-4.25q-0.219 0-0.375 0.156t-0.156 0.375 0.156 0.375 0.375 0.156v0 0zM23.406 10.844l5.406 5.375v1.906h-1.938l-0.219-0.219v-1.375q0-0.219-0.156-0.375t-0.375-0.156h-0.531v-0.531q0-0.219-0.156-0.375t-0.375-0.156v0 0h-1.375l-0.219-0.219v-1.375q0-0.219-0.156-0.375t-0.375-0.156h-1.375l-0.063-0.063q-0.063-0.063-0.156-0.109t-0.219-0.047q-0.219 0-0.375 0.156t-0.156 0.375q0 0.125 0.047 0.219t0.109 0.156v0l0.219 0.219q0.063 0.063 0.156 0.109t0.219 0.047v0 0h1.063v1.063q0 0.094 0.031 0.203t0.125 0.172v0l0.531 0.531q0.063 0.063 0.156 0.109t0.219 0.047v0 0h1.063v0.531q0 0.219 0.156 0.375t0.375 0.156v0 0h0.531v1.063q0 0.125 0.047 0.219t0.109 0.156v0l0.531 0.531q0.094 0.094 0.188 0.125t0.188 0.031v0 0h2.688q0.219 0 0.375-0.156t0.156-0.375v0 0 0-2.656q0-0.125-0.047-0.219t-0.109-0.156l-5.563-5.531q-0.063-0.094-0.156-0.125t-0.219-0.031q-0.219 0-0.375 0.156t-0.156 0.375q0 0.094 0.047 0.203t0.109 0.172v0 0zM2.656 28.531q0-0.313-0.234-0.547t-0.547-0.234q-0.344 0-0.578 0.234t-0.234 0.547q0 0.344 0.234 0.578t0.578 0.234v0q0.313 0 0.547-0.234t0.234-0.578v0 0zM3.719 17.063h-3.188q-0.219 0-0.375 0.156t-0.156 0.375 0.156 0.375 0.375 0.156v0h3.219q0.219 0 0.375 0.156t0.156 0.375v11.75q0 0.219-0.156 0.375t-0.406 0.156h-3.188q-0.219 0-0.375 0.156t-0.156 0.375 0.156 0.375 0.375 0.156v0h3.188q0.688 0 1.156-0.469t0.469-1.125v-11.75q0-0.656-0.469-1.125t-1.156-0.469v0 0zM31.719 22.406q-0.281-0.5-0.766-0.781t-1.078-0.281q-0.281 0-0.547 0.063t-0.516 0.188h0.031l-6.156 3q-0.719 0.344-1.578 0.406t-2.453 0.063q-1.438-0.063-2.797-0.203t-2.672-0.359l0.219 0.031h-0.094q-0.219 0-0.375 0.156t-0.156 0.375q0 0.188 0.141 0.344t0.328 0.188v0q1.188 0.219 2.563 0.359t2.781 0.172h0.063q1.656 0 2.641-0.063t1.859-0.531l6.188-3q0.094-0.063 0.234-0.094t0.297-0.031q0.438 0 0.75 0.313t0.313 0.75q0 0.281-0.156 0.531t-0.406 0.406v0l-7.188 4.469q-0.031 0.031-1.234 0.516t-3.828 0.484q-1.125 0-2.469-0.406t-2.516-0.891-1.953-0.891-0.813-0.438q-0.688-0.281-1.469-0.438t-1.625-0.156h-0.344q-0.219 0-0.375 0.156t-0.156 0.375 0.156 0.391 0.375 0.172v0q0.063-0.031 0.141-0.031h0.172q0.688 0 1.375 0.125t1.313 0.375l-0.063-0.031q0.063 0.063 0.906 0.5 0.844 0.406 2.063 0.922t2.625 0.922q1.438 0.406 2.656 0.406 2.906 0 4.25-0.563t1.375-0.594l7.188-4.469q0.469-0.281 0.766-0.766t0.297-1.078q0-0.281-0.078-0.563t-0.203-0.531v0.031z"></path>
</svg>
