<!-- Generated by IcoMoon.io -->
<svg version="1.1" xmlns="http://www.w3.org/2000/svg" width="34" height="32" viewBox="0 0 34 32">
<title>home-rent</title>
<path d="M33.125 14.125h-9.531v-1.125q0-0.781-0.531-1.313t-1.281-0.531-1.297 0.531-0.547 1.313v0 1.125h-9.531q-0.5 0-0.875 0.344t-0.438 0.844v0 8.781q0 0.563 0.391 0.953t0.922 0.391v0 0h1.625v3.594h-6.938v-17.5l11.594-7.688 11.594 7.688v1.406q0 0.219 0.141 0.359t0.359 0.141q0.188 0 0.344-0.141t0.156-0.359v0-0.75l1.469 1q0.219 0.125 0.453 0.203t0.484 0.078q0.719 0 1.203-0.484t0.484-1.203q0-0.406-0.203-0.781t-0.547-0.594v0l-15.469-10.25q-0.094-0.094-0.219-0.125t-0.25-0.031-0.25 0.031-0.219 0.125v0l-8.969 5.938q-0.094 0.063-0.156 0.172t-0.063 0.234q0 0.219 0.141 0.359t0.328 0.141q0.094 0 0.156-0.031l0.125-0.063 8.906-5.906 15.406 10.219q0.125 0.094 0.203 0.25t0.078 0.313q0 0.188-0.078 0.344t-0.203 0.25v0q-0.094 0.063-0.188 0.094t-0.219 0.031q-0.094 0-0.188-0.031t-0.188-0.094v0l-14.156-9.375q-0.094-0.094-0.219-0.125t-0.25-0.031-0.25 0.031-0.219 0.125v0l-14.156 9.375q-0.094 0.063-0.188 0.094t-0.219 0.031q-0.281 0-0.484-0.203t-0.203-0.484q0-0.188 0.094-0.344t0.219-0.25v0l3.969-2.625q0.094-0.063 0.172-0.172t0.078-0.234q0-0.219-0.156-0.359t-0.344-0.141q-0.094 0-0.172 0.031t-0.141 0.063v0l-3.938 2.625q-0.344 0.219-0.547 0.594t-0.203 0.781q0 0.719 0.484 1.203t1.203 0.484v0 0 0 0 0q0.25 0 0.484-0.078t0.453-0.203h-0.031l1.5-1v16.844h-1.875q-0.625 0-1.063 0.438t-0.438 1.063q0 0.594 0.438 1.031t1.063 0.438v0h28.938q0.625 0 1.063-0.438t0.438-1.031q0-0.625-0.438-1.063t-1.063-0.438v0h-1.875v-2.438q0-0.188-0.156-0.328t-0.344-0.141q-0.219 0-0.359 0.141t-0.141 0.328v0 2.438h-4.688v-3.594h9.531q0.563 0 0.953-0.391t0.391-0.953v-8.656q0-0.531-0.391-0.922t-0.953-0.391v0 0 0 0zM20.938 13q0-0.344 0.25-0.594t0.594-0.25 0.578 0.25 0.234 0.594v0 1.125h-1.656v-1.125zM19.938 31h-17.719q-0.219 0-0.359-0.141t-0.141-0.328q0-0.219 0.141-0.359t0.359-0.141h17.719v0.969zM19.938 29.031h-6.938v-3.594h6.938v3.594zM22.594 31h-1.656v-5.563h1.656v5.563zM31.156 30.031v0q0.219 0 0.359 0.141t0.141 0.359q0 0.188-0.141 0.328t-0.359 0.141h-7.563v-0.969h7.563zM33.125 24.438h-22.719q-0.125 0-0.234-0.094t-0.109-0.25v-8.656q0-0.125 0.109-0.219t0.234-0.094v0 0h22.719q0.156 0 0.25 0.094t0.094 0.219v8.656q0 0.156-0.094 0.25t-0.25 0.094v0 0 0 0zM16.688 6q-1.281 0.031-2.188 0.938t-0.906 2.188 0.906 2.188 2.188 0.906 2.188-0.906 0.906-2.188v0q0-1.281-0.906-2.203t-2.188-0.922v0 0 0 0zM16.188 11.156q-0.563-0.125-0.984-0.547t-0.578-0.984v-0.031h1.563v1.563zM16.188 8.625h-1.563q0.156-0.594 0.578-1.016t0.984-0.547v0 1.563zM17.188 7.063q0.563 0.125 0.984 0.547t0.578 0.984v0.031h-1.563v-1.563zM17.188 11.156v-1.563h1.563q-0.156 0.594-0.563 1.016t-1 0.547v0 0zM17.219 21.813l-0.938-1.719q0.406-0.156 0.672-0.5t0.266-0.781v-0.156q0-0.844-0.5-1.172t-1.188-0.328h-1.438q-0.094 0-0.188 0.094t-0.094 0.219v0 0 0 4.625q0.063 0.125 0.188 0.203t0.281 0.078 0.281-0.078 0.188-0.203v0-1.875h0.594l1.031 1.969q0.031 0.094 0.109 0.156t0.203 0.063v0q0.219 0 0.375-0.141t0.188-0.328v0-0.063t-0.031-0.063v0 0zM15.531 19.5h-0.781v-1.531h0.781q0.313 0 0.531 0.234t0.219 0.547-0.219 0.531-0.531 0.219v0 0zM20.969 21.563h-2v-1.438h1.063q0.125 0 0.219-0.094t0.094-0.219v-0.063q0-0.156-0.094-0.25t-0.219-0.094v0h-1.063v-1.438h2q0.125 0 0.219-0.109t0.094-0.234v-0.125q0-0.125-0.094-0.219t-0.219-0.125v0h-2.594q-0.125 0-0.219 0.094t-0.125 0.219v0 4.625q0.031 0.125 0.125 0.203t0.219 0.078h2.594q0.125-0.031 0.219-0.125t0.094-0.219v-0.125q0-0.125-0.078-0.219t-0.234-0.125v0 0zM24.969 17.156h-0.094q-0.125 0-0.234 0.078t-0.141 0.234v0 2.844l-1.375-2.656q-0.188-0.313-0.313-0.406t-0.375-0.094h-0.094q-0.125 0-0.234 0.094t-0.141 0.219v0 4.625q0.031 0.125 0.141 0.203t0.234 0.078h0.156q0.125 0 0.234-0.078t0.141-0.203v0-2.875l1.563 2.875q0.063 0.125 0.188 0.203t0.281 0.078h0.125q0.156 0 0.25-0.078t0.156-0.203v0-4.625q-0.031-0.156-0.141-0.234t-0.266-0.078h-0.063zM29.406 17.156h-3.031q-0.125 0.063-0.203 0.172t-0.078 0.266q0 0.125 0.078 0.25t0.203 0.156v0h1.063v4.094q0.031 0.125 0.125 0.203t0.25 0.078h0.156q0.125 0 0.234-0.078t0.141-0.203v0-4.094h1.063q0.125-0.031 0.203-0.156t0.078-0.25q0-0.156-0.078-0.266t-0.203-0.172v0 0z"></path>
</svg>
