<!-- Generated by IcoMoon.io -->
<svg version="1.1" xmlns="http://www.w3.org/2000/svg" width="32" height="32" viewBox="0 0 32 32">
<title>multi-home</title>
<path d="M31.688 12.219l-9.938-7.438q-0.094-0.063-0.203-0.109t-0.234-0.047-0.234 0.047-0.203 0.109v0l-2.219 1.719-2.25-1.719q-0.094-0.063-0.203-0.109t-0.234-0.047-0.25 0.047-0.188 0.109v0l-2.219 1.719-2.25-1.719q-0.094-0.063-0.203-0.109t-0.234-0.047-0.234 0.047-0.203 0.109v0l-9.906 7.438q-0.125 0.094-0.203 0.25t-0.078 0.313v0 0 0 13.844q0 0.281 0.219 0.5t0.5 0.219h30.5q0.313 0 0.531-0.219t0.219-0.5v0-13.844q0-0.156-0.078-0.313t-0.203-0.25v0 0zM30.656 26h-4.031v-13.219q0-0.156-0.078-0.313t-0.203-0.25v0l-6.594-4.906 1.563-1.219 9.344 7.031v12.875zM21.313 26v-13.219q0-0.156-0.078-0.313t-0.203-0.25h-0.031l-6.594-4.938 1.563-1.188 9.344 7.031v12.875h-4zM12.656 26h-4v-6.656h4v6.656zM14 26v-7.25q0-0.313-0.219-0.516t-0.531-0.203v0h-5.219q-0.281 0-0.5 0.203t-0.219 0.516v0 7.25h-6v-12.875l9.344-7.031 9.313 7.031v12.875h-5.969z"></path>
</svg>
