<!-- Generated by IcoMoon.io -->
<svg version="1.1" xmlns="http://www.w3.org/2000/svg" width="32" height="32" viewBox="0 0 32 32">
<title>pool</title>
<path d="M28.75 23.188q-0.344-0.094-0.75-0.141t-0.813-0.047q-0.844 0-1.641 0.188t-1.516 0.531h0.031q-0.531 0.25-1.156 0.406t-1.313 0.156-1.313-0.156-1.188-0.406v0q-0.688-0.344-1.469-0.531t-1.625-0.188-1.656 0.203-1.531 0.547l0.063-0.031q-0.563 0.281-1.188 0.422t-1.281 0.141q-0.688 0-1.313-0.156t-1.219-0.406h0.063q-0.688-0.344-1.469-0.531t-1.625-0.188h-0.063q-0.406 0-0.813 0.063t-0.781 0.125h0.063q-0.25 0.063-0.422 0.266t-0.172 0.453q0 0.063 0.016 0.094t0.016 0.094v0q0.063 0.219 0.266 0.391t0.453 0.172h0.094t0.063-0.031v0q0.281-0.063 0.609-0.094t0.641-0.031q0.688 0 1.313 0.141t1.188 0.422h-0.031q0.688 0.344 1.484 0.531t1.641 0.188 1.641-0.203 1.516-0.547l-0.031 0.031q0.531-0.281 1.156-0.422t1.313-0.141 1.313 0.141 1.219 0.422v0q0.656 0.313 1.453 0.5t1.609 0.188q0.875 0 1.672-0.188t1.484-0.531l-0.031 0.031q0.531-0.281 1.172-0.422t1.297-0.141q0.344 0 0.656 0.031t0.625 0.094h-0.031q0.031 0 0.078 0.016t0.078 0.016q0.281 0 0.469-0.172t0.25-0.422v0q0-0.031 0.016-0.078t0.016-0.078q0-0.281-0.172-0.469t-0.422-0.25v0 0zM28.75 19.594q-0.344-0.063-0.75-0.109t-0.813-0.047q-0.844 0-1.641 0.188t-1.516 0.531h0.031q-0.094 0.031-0.234 0.094t-0.266 0.125h-0.063v-14.875q-0.031-1.156-0.859-1.953t-1.953-0.797q-1.156 0-1.984 0.797t-0.859 1.953v0q0 0.313 0.219 0.531t0.531 0.219q0.281 0 0.5-0.219t0.219-0.531v0q0.031-0.563 0.422-0.938t0.953-0.375q0.531 0 0.938 0.375t0.406 0.938v0 3.438h-7.875v-3.438q-0.031-1.156-0.859-1.953t-1.984-0.797-1.969 0.797-0.844 1.953v0q0 0.313 0.203 0.531t0.516 0.219 0.531-0.219 0.219-0.531v0q0-0.563 0.391-0.953t0.953-0.391 0.969 0.391 0.406 0.953v0 14.719q-0.5 0.25-1.094 0.375t-1.188 0.125q-0.688 0-1.313-0.156t-1.188-0.438l0.031 0.031q-0.688-0.344-1.484-0.531t-1.641-0.188v0 0 0q-0.406 0-0.813 0.047t-0.813 0.141l0.063-0.031q-0.25 0.063-0.406 0.266t-0.156 0.484q0 0.313 0.203 0.516t0.516 0.203h0.156q0.281-0.063 0.609-0.109t0.641-0.047q0.688 0 1.313 0.156t1.188 0.438h-0.031q0.688 0.313 1.484 0.5t1.641 0.188 1.641-0.188 1.516-0.531l-0.031 0.031q0.531-0.281 1.156-0.438t1.313-0.156 1.313 0.156 1.188 0.438h0.031q0.656 0.313 1.438 0.5t1.625 0.188 1.641-0.188 1.516-0.531l-0.031 0.031q0.531-0.281 1.156-0.422t1.313-0.141q0.344 0 0.656 0.031t0.625 0.094h0.094q0.313 0 0.531-0.219t0.219-0.5-0.156-0.484-0.406-0.266v0 0zM22.031 20.656q-0.094 0.031-0.219 0.031h-0.25q-0.656 0-1.281-0.141t-1.188-0.422v0q-0.688-0.313-1.469-0.5t-1.594-0.188q-0.5 0-0.984 0.063t-0.953 0.188h0.063v-3.25h7.875v4.219zM22.031 14.969h-7.875v-4.563h7.875v4.563zM28.75 26.75q-0.344-0.063-0.734-0.109t-0.828-0.047q-0.844 0-1.641 0.188t-1.516 0.531l0.031-0.031q-0.531 0.281-1.156 0.422t-1.313 0.141q-0.656 0-1.297-0.141t-1.203-0.422v0q-0.688-0.344-1.469-0.516t-1.625-0.172-1.656 0.188-1.531 0.531h0.063q-0.563 0.25-1.188 0.391t-1.281 0.172v0 0 0q-0.688 0-1.313-0.156t-1.188-0.438h0.031q-0.688-0.313-1.469-0.5t-1.625-0.188h-0.031q-0.406 0-0.813 0.047t-0.813 0.141l0.063-0.031q-0.25 0.063-0.406 0.266t-0.156 0.453q0 0.313 0.203 0.531t0.516 0.219h0.188q0.281-0.094 0.594-0.125t0.656-0.031q0.656 0 1.297 0.156t1.203 0.438l-0.031-0.031q0.656 0.344 1.453 0.531t1.641 0.188v0 0 0q0.844 0 1.656-0.188t1.5-0.563l-0.031 0.031q0.531-0.281 1.172-0.422t1.297-0.141q0.688 0 1.328 0.156t1.203 0.438l-0.031-0.031h0.031q0.688 0.344 1.469 0.531t1.625 0.188 1.641-0.188 1.484-0.563l-0.031 0.031q0.531-0.25 1.172-0.406t1.297-0.156q0.344 0 0.656 0.031t0.625 0.125l-0.031-0.031q0.031 0.031 0.078 0.031h0.078q0.313 0 0.531-0.219t0.219-0.531q0-0.25-0.172-0.453t-0.422-0.266v0 0z"></path>
</svg>
